# Blender v2.93.10 OBJ File: ''
# www.blender.org
o Cube.002
v 1.000000 1.000000 -1.000000
v -1.000000 1.000000 -1.000000
v -1.000000 1.000000 1.000000
v 1.000000 1.000000 1.000000
v 1.000000 -1.000000 1.000000
v -1.000000 -1.000000 1.000000
v -1.000000 -1.000000 -1.000000
v 1.000000 -1.000000 -1.000000
v -2.499558 1.000000 2.499558
v 2.499558 1.000000 2.499558
v 2.499558 1.000000 -2.499558
v -2.499558 1.000000 -2.499558
v 2.499558 -1.000000 2.499558
v -2.499558 -1.000000 2.499558
v -2.499558 -1.000000 -2.499558
v 2.499558 -1.000000 -2.499558
v -2.124669 1.000000 -2.124668
v -1.749779 1.000000 -1.749779
v -1.374889 1.000000 -1.374889
v 1.374889 1.000000 -1.374889
v 1.749779 1.000000 -1.749779
v 2.124669 1.000000 -2.124668
v -2.124669 1.000000 2.124669
v -1.749779 1.000000 1.749779
v -1.374889 1.000000 1.374890
v 2.124669 1.000000 2.124669
v 1.749779 1.000000 1.749779
v 1.374889 1.000000 1.374890
vt 0.823528 0.824907
vt 0.176240 0.824907
vt 0.176240 0.175976
vt 0.823528 0.175976
vt 0.823528 0.175976
vt 0.823528 0.824907
vt 0.997441 0.999262
vt 0.997441 0.001621
vt 0.045805 0.045210
vt 0.045805 0.955673
vt 0.002327 0.999261
vt 0.002327 0.001621
vt 0.176240 0.824907
vt 0.176240 0.175976
vt 0.002327 0.001621
vt 0.002327 0.999262
vt 0.953963 0.955673
vt 0.997441 0.999261
vt 0.997441 0.001621
vt 0.953963 0.045210
vt 0.867006 0.132387
vt 0.867006 0.868496
vt 0.910484 0.088798
vt 0.910484 0.912084
vt 0.132762 0.132387
vt 0.089283 0.088798
vt 0.132762 0.868496
vt 0.089283 0.912084
vn 0.0000 1.0000 0.0000
vn -0.0000 -1.0000 -0.0000
vn 0.0000 -0.0000 1.0000
vn -1.0000 -0.0000 0.0000
vn 1.0000 0.0000 0.0000
vn 0.0000 0.0000 -1.0000
s 1
f 1/1/1 2/2/1 3/3/1 4/4/1
f 5/5/2 8/6/2 16/7/2 13/8/2
f 23/9/1 17/10/1 12/11/1 9/12/1
f 7/13/2 8/6/2 5/5/2 6/14/2
f 7/13/2 6/14/2 14/15/2 15/16/2
f 17/10/1 22/17/1 11/18/1 12/11/1
f 13/8/3 10/19/3 9/12/3 14/15/3
f 14/15/4 9/12/4 12/11/4 15/16/4
f 16/7/5 11/18/5 10/19/5 13/8/5
f 15/16/6 12/11/6 11/18/6 16/7/6
f 26/20/1 23/9/1 9/12/1 10/19/1
f 8/6/2 7/13/2 15/16/2 16/7/2
f 6/14/2 5/5/2 13/8/2 14/15/2
f 22/17/1 26/20/1 10/19/1 11/18/1
f 1/1/1 4/4/1 28/21/1 20/22/1
f 20/22/1 28/21/1 27/23/1 21/24/1
f 21/24/1 27/23/1 26/20/1 22/17/1
f 4/4/1 3/3/1 25/25/1 28/21/1
f 28/21/1 25/25/1 24/26/1 27/23/1
f 27/23/1 24/26/1 23/9/1 26/20/1
f 2/2/1 1/1/1 20/22/1 19/27/1
f 19/27/1 20/22/1 21/24/1 18/28/1
f 18/28/1 21/24/1 22/17/1 17/10/1
f 3/3/1 2/2/1 19/27/1 25/25/1
f 25/25/1 19/27/1 18/28/1 24/26/1
f 24/26/1 18/28/1 17/10/1 23/9/1
