# Blender v2.93.10 OBJ File: 'Emoji.blend'
# www.blender.org
o Emo_lol_Sphere
v 0.000000 0.809017 2.551270
v 0.000000 0.309017 2.187998
v 0.000000 -0.309017 2.187998
v 0.000000 -0.809017 2.551270
v 0.415627 0.809017 2.723428
v 0.672499 0.309017 2.466556
v 0.672499 -0.309017 2.466556
v 0.415627 -0.809017 2.723428
v 0.587785 0.809017 3.139055
v 0.951057 0.309017 3.139055
v 0.951057 -0.309017 3.139055
v 0.587785 -0.809017 3.139055
v 0.000000 -1.000000 3.139055
v 0.415627 0.809017 3.554682
v 0.672499 0.309017 3.811553
v 0.672499 -0.309017 3.811553
v 0.415627 -0.809017 3.554682
v 0.000000 0.809017 3.726840
v 0.000000 0.309017 4.090111
v 0.000000 -0.309017 4.090111
v -0.000000 -0.809017 3.726840
v -0.000000 1.000000 3.139055
v -0.415627 0.809017 3.554682
v -0.672499 0.309017 3.811553
v -0.672499 -0.309017 3.811553
v -0.415627 -0.809017 3.554682
v -0.587785 0.809017 3.139055
v -0.951057 0.309017 3.139055
v -0.951057 -0.309017 3.139055
v -0.587785 -0.809017 3.139055
v -0.415627 0.809017 2.723428
v -0.672499 0.309017 2.466556
v -0.672499 -0.309017 2.466556
v -0.415627 -0.809017 2.723428
vt 0.259618 0.505287
vt 0.399629 0.544059
vt 0.306344 0.653731
vt 0.231504 0.592688
vt 0.494813 0.665614
vt 0.494813 0.830220
vt 0.390132 0.826725
vt 0.357579 0.729749
vt 0.109206 0.538898
vt 0.394016 0.961185
vt 0.181275 0.644537
vt 0.272993 0.783148
vt 0.230229 0.716936
vt 0.321947 0.855546
vt 0.113091 0.673358
vt 0.196878 0.846352
vt 0.145643 0.770335
vt 0.271718 0.907396
vt 0.008410 0.669864
vt 0.103593 0.956025
vt 0.008409 0.834469
vt 0.243605 0.994797
vt 0.259618 0.505287
vt 0.231504 0.592688
vt 0.399629 0.544059
vt 0.494813 0.665614
vt 0.357579 0.729749
vt 0.306344 0.653731
vt 0.494813 0.830220
vt 0.390132 0.826726
vt 0.181275 0.644537
vt 0.272993 0.783148
vt 0.230229 0.716936
vt 0.321947 0.855546
vt 0.113091 0.673358
vt 0.196878 0.846352
vt 0.145643 0.770335
vt 0.271718 0.907396
vt 0.008410 0.669864
vt 0.103593 0.956025
vt 0.008409 0.834469
vt 0.243604 0.994797
vn 0.0000 -0.7736 -0.6336
vn 0.0000 -0.2889 -0.9573
vn 0.6769 -0.2889 -0.6769
vn 0.4480 -0.7736 -0.4480
vn 0.0000 0.2889 -0.9573
vn 0.0000 0.7736 -0.6336
vn 0.4480 0.7736 -0.4480
vn 0.6769 0.2889 -0.6769
vn 0.0000 -1.0000 0.0000
vn 0.0000 1.0000 0.0000
vn 0.6336 -0.7736 0.0000
vn 0.9573 0.2889 0.0000
vn 0.9573 -0.2889 0.0000
vn 0.6336 0.7736 0.0000
vn 0.4480 -0.7736 0.4480
vn 0.6769 0.2889 0.6769
vn 0.6769 -0.2889 0.6769
vn 0.4480 0.7736 0.4480
vn 0.0000 -0.7736 0.6336
vn 0.0000 0.2889 0.9573
vn 0.0000 -0.2889 0.9573
vn 0.0000 0.7736 0.6336
vn -0.4480 -0.7736 0.4480
vn -0.6769 0.2889 0.6769
vn -0.6769 -0.2889 0.6769
vn -0.4480 0.7736 0.4480
vn -0.6336 -0.7736 0.0000
vn -0.9573 0.2889 0.0000
vn -0.9573 -0.2889 0.0000
vn -0.6336 0.7736 0.0000
vn -0.4480 -0.7736 -0.4480
vn -0.6769 0.2889 -0.6769
vn -0.6769 -0.2889 -0.6769
vn -0.4480 0.7736 -0.4480
s 1
f 4/1/1 3/2/2 7/3/3 8/4/4
f 2/5/5 1/6/6 5/7/7 6/8/8
f 13/9/9 4/1/1 8/4/4
f 3/2/2 2/5/5 6/8/8 7/3/3
f 1/6/6 22/10/10 5/7/7
f 13/9/9 8/4/4 12/11/11
f 7/3/3 6/8/8 10/12/12 11/13/13
f 5/7/7 22/10/10 9/14/14
f 8/4/4 7/3/3 11/13/13 12/11/11
f 6/8/8 5/7/7 9/14/14 10/12/12
f 13/9/9 12/11/11 17/15/15
f 11/13/13 10/12/12 15/16/16 16/17/17
f 9/14/14 22/10/10 14/18/18
f 12/11/11 11/13/13 16/17/17 17/15/15
f 10/12/12 9/14/14 14/18/18 15/16/16
f 13/9/9 17/15/15 21/19/19
f 16/17/17 15/16/16 19/20/20 20/21/21
f 14/18/18 22/10/10 18/22/22
f 17/15/15 16/17/17 20/21/21 21/19/19
f 15/16/16 14/18/18 18/22/22 19/20/20
f 13/9/9 21/23/19 26/24/23
f 20/25/21 19/26/20 24/27/24 25/28/25
f 18/29/22 22/10/10 23/30/26
f 21/23/19 20/25/21 25/28/25 26/24/23
f 19/26/20 18/29/22 23/30/26 24/27/24
f 13/9/9 26/24/23 30/31/27
f 25/28/25 24/27/24 28/32/28 29/33/29
f 23/30/26 22/10/10 27/34/30
f 26/24/23 25/28/25 29/33/29 30/31/27
f 24/27/24 23/30/26 27/34/30 28/32/28
f 13/9/9 30/31/27 34/35/31
f 29/33/29 28/32/28 32/36/32 33/37/33
f 27/34/30 22/10/10 31/38/34
f 30/31/27 29/33/29 33/37/33 34/35/31
f 28/32/28 27/34/30 31/38/34 32/36/32
f 13/9/9 34/35/31 4/39/1
f 33/37/33 32/36/32 2/40/5 3/41/2
f 31/38/34 22/10/10 1/42/6
f 34/35/31 33/37/33 3/41/2 4/39/1
f 32/36/32 31/38/34 1/42/6 2/40/5
