# Blender 3.3.0
# www.blender.org
o flower
v -0.039404 0.310967 0.315465
v 0.421300 0.317250 0.580868
v 0.325229 0.271650 0.065954
v 0.533854 0.323190 0.276845
v -0.055127 0.086873 0.111450
v 0.121645 0.070995 -0.016837
v 0.161501 0.264424 0.213519
v 0.088955 0.383010 0.570655
v 0.012952 0.010252 0.022054
v 0.048356 0.284171 0.276880
v 0.012202 0.372126 0.455801
v 0.449322 0.319149 0.161617
v 0.207218 0.166070 0.007706
v -0.057372 0.191561 0.194554
v 0.296667 0.313366 0.396806
v 0.066716 0.027230 -0.004517
v 0.262773 0.263193 0.128030
v 0.533721 0.336588 0.432716
v -0.027572 0.035056 0.064949
v 0.076834 0.146021 0.103908
v 0.252868 0.377660 0.624932
v 0.148571 0.360331 0.453228
v 0.152011 0.148777 0.047264
v -0.000744 0.162283 0.156187
v 0.406422 0.326605 0.268942
v 0.222453 0.307617 -0.231642
v 0.008896 0.336788 -0.708550
v -0.224382 0.275775 -0.239831
v -0.266306 0.341401 -0.527846
v 0.110651 0.086082 -0.057908
v -0.108461 0.071113 -0.057449
v -0.002683 0.267248 -0.264886
v 0.274214 0.380826 -0.509936
v 0.002495 0.010272 -0.025446
v 0.127526 0.283807 -0.250887
v 0.266643 0.368070 -0.373907
v -0.267382 0.329611 -0.386950
v -0.163415 0.167125 -0.126265
v 0.162792 0.189734 -0.123848
v -0.001267 0.322927 -0.489266
v -0.056654 0.027298 -0.035469
v -0.136326 0.267464 -0.254146
v -0.171606 0.360285 -0.652793
v 0.060608 0.034810 -0.036365
v -0.000419 0.146669 -0.128493
v 0.173904 0.385422 -0.646774
v 0.154044 0.362675 -0.449516
v -0.095074 0.149901 -0.126359
v 0.093707 0.161736 -0.125662
v -0.167541 0.338802 -0.448690
v -0.158731 0.307942 -0.278833
v -0.690062 0.293504 -0.230691
v -0.301874 0.274004 0.133086
v -0.597386 0.320658 0.080024
v -0.021455 0.086942 -0.122424
v -0.088367 0.071696 0.084689
v -0.258605 0.261202 -0.080562
v -0.418150 0.366745 -0.413407
v -0.023451 0.010220 -0.010238
v -0.205766 0.280287 -0.197112
v -0.286438 0.363439 -0.363658
v -0.459646 0.320715 0.125438
v -0.171882 0.167595 0.113784
v -0.069973 0.190987 -0.190962
v -0.478581 0.302236 -0.152574
v -0.051295 0.027421 0.042776
v -0.288841 0.262819 0.047000
v -0.691605 0.323844 -0.046908
v -0.015996 0.035049 -0.068726
v -0.123897 0.145264 -0.039630
v -0.582782 0.353465 -0.364058
v -0.394367 0.348275 -0.283737
v -0.150885 0.149067 0.049883
v -0.092506 0.161338 -0.127056
v -0.489966 0.322377 0.013654
v -0.320514 0.302520 0.059364
v -0.435443 0.325116 0.565895
v 0.037779 0.280677 0.322042
v -0.103193 0.350116 0.576945
v -0.123911 0.085662 -0.017754
v 0.053848 0.071886 0.109791
v -0.157149 0.265770 0.215090
v -0.532376 0.363219 0.254764
v -0.016989 0.010252 0.019118
v -0.254666 0.279699 0.129103
v -0.443533 0.356878 0.149324
v -0.016831 0.337641 0.464308
v 0.057183 0.169302 0.196583
v -0.206031 0.188031 0.005835
v -0.294541 0.317706 0.394935
v 0.024952 0.027531 0.061906
v -0.042221 0.269729 0.283153
v -0.256183 0.362175 0.623372
v -0.070495 0.034651 -0.006109
v -0.076154 0.146312 0.104000
v -0.533835 0.366035 0.422076
v -0.397664 0.352071 0.274294
v 0.001817 0.150885 0.157182
v -0.150874 0.160453 0.047144
v -0.135423 0.342109 0.456949
v 0.296196 0.302721 0.135646
v 0.695310 0.298375 -0.207522
v 0.163247 0.279582 -0.281251
v 0.433031 0.337296 -0.405969
v 0.089843 0.086193 0.086637
v 0.021335 0.072246 -0.120194
v 0.256936 0.262033 -0.083161
v 0.587357 0.354513 0.097923
v 0.024993 0.010220 -0.005488
v 0.284551 0.277523 0.042017
v 0.451126 0.354014 0.132440
v 0.294536 0.332142 -0.364413
v 0.070895 0.169592 -0.191808
v 0.170584 0.188805 0.114420
v 0.477722 0.304920 -0.149902
v 0.016281 0.027607 -0.064697
v 0.204615 0.266859 -0.204037
v 0.585673 0.339659 -0.356387
v 0.053455 0.034799 0.046251
v 0.123637 0.145443 -0.039785
v 0.689845 0.346287 -0.036177
v 0.489416 0.343171 0.005731
v 0.092132 0.150370 -0.127970
v 0.150417 0.160207 0.049388
v 0.386506 0.331958 -0.290854
vn -0.0088 -0.8392 0.5437
vn 0.0423 -0.8394 0.5419
vn -0.1170 -0.9546 0.2741
vn -0.0793 -0.9400 0.3318
vn 0.2015 -0.8826 0.4248
vn -0.0108 -0.9857 0.1681
vn -0.0766 -0.9926 0.0942
vn -0.2039 -0.9586 0.1989
vn -0.0819 -0.9855 0.1488
vn 0.3845 -0.6795 0.6249
vn 0.5063 -0.6966 0.5084
vn 0.3562 -0.8838 0.3033
vn 0.4337 -0.6046 0.6681
vn 0.5151 -0.6165 0.5955
vn 0.5879 -0.6387 0.4965
vn 0.5324 -0.7328 0.4238
vn 0.3687 -0.8929 0.2582
vn 0.1217 -0.6863 0.7171
vn 0.2269 -0.6667 0.7100
vn 0.1992 -0.6023 0.7731
vn 0.3345 -0.5991 0.7274
vn 0.1156 -0.9895 0.0866
vn 0.1576 -0.9792 0.1276
vn -0.0313 -0.9968 0.0739
vn 0.0672 -0.9977 -0.0059
vn 0.2909 -0.8469 -0.4451
vn 0.2524 -0.8419 -0.4770
vn 0.2115 -0.9610 -0.1780
vn 0.2117 -0.9479 -0.2382
vn 0.0628 -0.8737 -0.4823
vn 0.0715 -0.9832 -0.1681
vn 0.0804 -0.9939 -0.0755
vn 0.2315 -0.9700 -0.0737
vn 0.1007 -0.9902 -0.0972
vn 0.0446 -0.6727 -0.7385
vn -0.1147 -0.6852 -0.7193
vn -0.1194 -0.8683 -0.4814
vn 0.0349 -0.6005 -0.7989
vn -0.0695 -0.6098 -0.7895
vn -0.1823 -0.6296 -0.7553
vn -0.1822 -0.7184 -0.6714
vn -0.1508 -0.8763 -0.4575
vn 0.3004 -0.6905 -0.6580
vn 0.2159 -0.6666 -0.7135
vn 0.2792 -0.6052 -0.7455
vn 0.1463 -0.5981 -0.7880
vn -0.0618 -0.9808 -0.1847
vn -0.0630 -0.9683 -0.2419
vn 0.0510 -0.9940 -0.0963
vn -0.0862 -0.9924 -0.0878
vn -0.2794 -0.8527 -0.4413
vn -0.3254 -0.8543 -0.4054
vn -0.0207 -0.9629 -0.2691
vn -0.0851 -0.9490 -0.3036
vn -0.3951 -0.8960 -0.2025
vn -0.0544 -0.9931 -0.1042
vn 0.0489 -0.9957 -0.0792
vn 0.0988 -0.9628 -0.2515
vn 0.0335 -0.9886 -0.1469
vn -0.6731 -0.6886 -0.2697
vn -0.7066 -0.7011 -0.0963
vn -0.4577 -0.8891 -0.0024
vn -0.7413 -0.6100 -0.2799
vn -0.7663 -0.6198 -0.1692
vn -0.7678 -0.6393 -0.0419
vn -0.6784 -0.7346 -0.0066
vn -0.4453 -0.8942 0.0458
vn -0.5020 -0.6989 -0.5095
vn -0.5896 -0.6779 -0.4392
vn -0.6055 -0.6101 -0.5109
vn -0.6930 -0.6061 -0.3905
vn -0.1232 -0.9913 0.0466
vn -0.1916 -0.9807 0.0397
vn 0.0026 -0.9998 -0.0217
vn -0.0218 -0.9948 0.0999
vn -0.4683 -0.8656 0.1773
vn -0.4570 -0.8584 0.2330
vn -0.2277 -0.9737 0.0117
vn -0.2675 -0.9621 0.0539
vn -0.3030 -0.8813 0.3627
vn -0.1054 -0.9889 0.1046
vn -0.0537 -0.9983 0.0218
vn -0.1729 -0.9816 -0.0811
vn -0.0833 -0.9965 0.0059
vn -0.4560 -0.6775 0.5772
vn -0.3150 -0.6826 0.6594
vn -0.1573 -0.8639 0.4784
vn -0.4895 -0.6033 0.6296
vn -0.3987 -0.6090 0.6856
vn -0.2870 -0.6247 0.7262
vn -0.2304 -0.7114 0.6639
vn -0.1193 -0.8675 0.4828
vn -0.6157 -0.7059 0.3500
vn -0.5818 -0.6777 0.4497
vn -0.6575 -0.6149 0.4355
vn -0.5742 -0.6043 0.5524
vn -0.0136 -0.9774 0.2108
vn -0.0520 -0.9631 0.2642
vn -0.0491 -0.9956 0.0796
vn 0.0747 -0.9862 0.1478
vn 0.4656 -0.8694 0.1655
vn 0.4878 -0.8663 0.1075
vn 0.1538 -0.9748 0.1614
vn 0.2202 -0.9629 0.1561
vn 0.4337 -0.8952 -0.1027
vn 0.0991 -0.9951 -0.0003
vn 0.0009 -0.9992 0.0389
vn 0.0465 -0.9771 0.2074
vn 0.0310 -0.9955 0.0895
vn 0.7000 -0.6874 -0.1938
vn 0.6298 -0.6923 -0.3522
vn 0.3782 -0.8765 -0.2978
vn 0.7622 -0.6092 -0.2189
vn 0.7194 -0.6152 -0.3225
vn 0.6491 -0.6306 -0.4255
vn 0.5586 -0.7212 -0.4096
vn 0.3466 -0.8783 -0.3293
vn 0.6957 -0.7113 0.1005
vn 0.7287 -0.6848 -0.0070
vn 0.7847 -0.6180 0.0480
vn 0.7864 -0.6093 -0.1014
vn 0.0830 -0.9838 -0.1592
vn 0.1489 -0.9705 -0.1895
vn 0.0268 -0.9990 -0.0355
vn -0.0340 -0.9875 -0.1539
vt 0.097988 0.210372
vt 0.239406 0.492682
vt 0.372210 0.210776
vt 0.395456 0.386804
vt 0.175335 0.048388
vt 0.306417 0.047336
vt 0.238023 0.218626
vt 0.075803 0.382424
vt 0.242527 0.005077
vt 0.157529 0.214418
vt 0.074715 0.302080
vt 0.395765 0.303817
vt 0.337081 0.117674
vt 0.139213 0.118488
vt 0.239943 0.361341
vt 0.276535 0.018140
vt 0.319338 0.214499
vt 0.342190 0.460148
vt 0.207681 0.018699
vt 0.239675 0.106584
vt 0.138096 0.460668
vt 0.143303 0.343302
vt 0.296295 0.109080
vt 0.182552 0.109368
vt 0.337996 0.339223
vt 0.096075 0.219783
vt 0.238859 0.495529
vt 0.371963 0.212585
vt 0.397289 0.386811
vt 0.169928 0.056310
vt 0.301290 0.051152
vt 0.236719 0.224241
vt 0.074289 0.390824
vt 0.235897 0.010962
vt 0.155818 0.222222
vt 0.073353 0.311307
vt 0.397125 0.304547
vt 0.334270 0.120525
vt 0.135583 0.127245
vt 0.239524 0.365513
vt 0.270398 0.022920
vt 0.318605 0.217891
vt 0.343474 0.461094
vt 0.201418 0.025671
vt 0.236022 0.112574
vt 0.137159 0.466666
vt 0.142517 0.350344
vt 0.292980 0.113321
vt 0.178782 0.116972
vt 0.338817 0.341380
vt 0.099249 0.210706
vt 0.238656 0.495074
vt 0.370934 0.208408
vt 0.392601 0.386049
vt 0.174250 0.047636
vt 0.304807 0.045003
vt 0.237839 0.217398
vt 0.078319 0.384786
vt 0.240648 0.003456
vt 0.158138 0.214007
vt 0.076894 0.303383
vt 0.393724 0.302074
vt 0.335817 0.115201
vt 0.139237 0.118228
vt 0.239495 0.361886
vt 0.274705 0.016111
vt 0.318477 0.212516
vt 0.339923 0.460663
vt 0.206097 0.017530
vt 0.238881 0.104891
vt 0.139552 0.463177
vt 0.144420 0.344155
vt 0.295195 0.106861
vt 0.182153 0.108407
vt 0.336532 0.338278
vt 0.100893 0.216188
vt 0.237681 0.492273
vt 0.375311 0.206378
vt 0.397400 0.381532
vt 0.173069 0.052054
vt 0.304080 0.045054
vt 0.240344 0.219173
vt 0.077574 0.388253
vt 0.238228 0.005749
vt 0.160037 0.217920
vt 0.077820 0.308179
vt 0.399136 0.298745
vt 0.337628 0.114225
vt 0.139715 0.123362
vt 0.240983 0.361325
vt 0.272852 0.017206
vt 0.322002 0.212116
vt 0.342575 0.456649
vt 0.204038 0.020976
vt 0.239519 0.107297
vt 0.138398 0.463760
vt 0.145563 0.346572
vt 0.296339 0.107423
vt 0.182556 0.112432
vt 0.340463 0.336203
vt 0.099708 0.214195
vt 0.238565 0.493538
vt 0.371425 0.203297
vt 0.393889 0.380167
vt 0.170102 0.049204
vt 0.300544 0.041798
vt 0.237941 0.216466
vt 0.079546 0.388505
vt 0.234842 0.002632
vt 0.158353 0.215577
vt 0.078271 0.307251
vt 0.395185 0.296335
vt 0.333930 0.110995
vt 0.137413 0.120812
vt 0.240012 0.360588
vt 0.269375 0.014004
vt 0.318739 0.209089
vt 0.340858 0.456299
vt 0.200829 0.017984
vt 0.236496 0.104074
vt 0.140476 0.464690
vt 0.145572 0.345711
vt 0.292935 0.104106
vt 0.179917 0.109518
vt 0.337735 0.334276
s 1
f 1/1/1 10/10/2 22/22/3 11/11/4
f 10/10/2 7/7/5 15/15/6 22/22/3
f 22/22/3 15/15/6 2/2/7 21/21/8
f 11/11/4 22/22/3 21/21/8 8/8/9
f 7/7/5 20/20/10 23/23/11 17/17/12
f 20/20/10 9/9/13 16/16/14 23/23/11
f 23/23/11 16/16/14 6/6/15 13/13/16
f 17/17/12 23/23/11 13/13/16 3/3/17
f 1/1/1 14/14/18 24/24/19 10/10/2
f 14/14/18 5/5/20 19/19/21 24/24/19
f 24/24/19 19/19/21 9/9/13 20/20/10
f 10/10/2 24/24/19 20/20/10 7/7/5
f 7/7/5 17/17/12 25/25/22 15/15/6
f 17/17/12 3/3/17 12/12/23 25/25/22
f 25/25/22 12/12/23 4/4/24 18/18/25
f 15/15/6 25/25/22 18/18/25 2/2/7
f 26/26/26 35/35/27 47/47/28 36/36/29
f 35/35/27 32/32/30 40/40/31 47/47/28
f 47/47/28 40/40/31 27/27/32 46/46/33
f 36/36/29 47/47/28 46/46/33 33/33/34
f 32/32/30 45/45/35 48/48/36 42/42/37
f 45/45/35 34/34/38 41/41/39 48/48/36
f 48/48/36 41/41/39 31/31/40 38/38/41
f 42/42/37 48/48/36 38/38/41 28/28/42
f 26/26/26 39/39/43 49/49/44 35/35/27
f 39/39/43 30/30/45 44/44/46 49/49/44
f 49/49/44 44/44/46 34/34/38 45/45/35
f 35/35/27 49/49/44 45/45/35 32/32/30
f 32/32/30 42/42/37 50/50/47 40/40/31
f 42/42/37 28/28/42 37/37/48 50/50/47
f 50/50/47 37/37/48 29/29/49 43/43/50
f 40/40/31 50/50/47 43/43/50 27/27/32
f 51/51/51 60/60/52 72/72/53 61/61/54
f 60/60/52 57/57/55 65/65/56 72/72/53
f 72/72/53 65/65/56 52/52/57 71/71/58
f 61/61/54 72/72/53 71/71/58 58/58/59
f 57/57/55 70/70/60 73/73/61 67/67/62
f 70/70/60 59/59/63 66/66/64 73/73/61
f 73/73/61 66/66/64 56/56/65 63/63/66
f 67/67/62 73/73/61 63/63/66 53/53/67
f 51/51/51 64/64/68 74/74/69 60/60/52
f 64/64/68 55/55/70 69/69/71 74/74/69
f 74/74/69 69/69/71 59/59/63 70/70/60
f 60/60/52 74/74/69 70/70/60 57/57/55
f 57/57/55 67/67/62 75/75/72 65/65/56
f 67/67/62 53/53/67 62/62/73 75/75/72
f 75/75/72 62/62/73 54/54/74 68/68/75
f 65/65/56 75/75/72 68/68/75 52/52/57
f 76/76/76 85/85/77 97/97/78 86/86/79
f 85/85/77 82/82/80 90/90/81 97/97/78
f 97/97/78 90/90/81 77/77/82 96/96/83
f 86/86/79 97/97/78 96/96/83 83/83/84
f 82/82/80 95/95/85 98/98/86 92/92/87
f 95/95/85 84/84/88 91/91/89 98/98/86
f 98/98/86 91/91/89 81/81/90 88/88/91
f 92/92/87 98/98/86 88/88/91 78/78/92
f 76/76/76 89/89/93 99/99/94 85/85/77
f 89/89/93 80/80/95 94/94/96 99/99/94
f 99/99/94 94/94/96 84/84/88 95/95/85
f 85/85/77 99/99/94 95/95/85 82/82/80
f 82/82/80 92/92/87 100/100/97 90/90/81
f 92/92/87 78/78/92 87/87/98 100/100/97
f 100/100/97 87/87/98 79/79/99 93/93/100
f 90/90/81 100/100/97 93/93/100 77/77/82
f 101/101/101 110/110/102 122/122/103 111/111/104
f 110/110/102 107/107/105 115/115/106 122/122/103
f 122/122/103 115/115/106 102/102/107 121/121/108
f 111/111/104 122/122/103 121/121/108 108/108/109
f 107/107/105 120/120/110 123/123/111 117/117/112
f 120/120/110 109/109/113 116/116/114 123/123/111
f 123/123/111 116/116/114 106/106/115 113/113/116
f 117/117/112 123/123/111 113/113/116 103/103/117
f 101/101/101 114/114/118 124/124/119 110/110/102
f 114/114/118 105/105/120 119/119/121 124/124/119
f 124/124/119 119/119/121 109/109/113 120/120/110
f 110/110/102 124/124/119 120/120/110 107/107/105
f 107/107/105 117/117/112 125/125/122 115/115/106
f 117/117/112 103/103/117 112/112/123 125/125/122
f 125/125/122 112/112/123 104/104/124 118/118/125
f 115/115/106 125/125/122 118/118/125 102/102/107
