# Blender v3.3.0 OBJ File: 'Flower.blend'
# www.blender.org
o Flower5_leaf0.001
v 3.066350 3.027580 -1.035735
v 3.112089 2.571517 -0.615930
v 3.578563 2.975368 -1.476909
v 2.830595 4.189408 -2.238996
v 2.975816 3.627768 -1.622253
v 3.238147 4.291255 -2.739017
v 2.563719 4.776836 -2.138016
v 2.763038 3.562537 -0.750173
v 2.607892 4.266955 -1.225250
v 3.630090 3.530984 -2.136158
v 2.629555 4.693948 -2.872242
v 4.371912 -0.630898 -0.360340
v 3.987416 -0.879832 0.059798
v 4.701175 -1.128565 -0.682266
v 5.296551 0.072065 -1.586777
v 4.863954 -0.285788 -0.952979
v 5.690426 -0.259475 -1.988568
v 5.580336 0.658779 -1.545248
v 4.568052 -0.018202 -0.146199
v 5.087571 0.459814 -0.643767
v 5.254429 -0.931940 -1.315686
v 5.652687 0.434262 -2.248562
v 3.880090 0.325577 2.116694
v 3.505238 -0.169409 2.088487
v 4.496799 0.149824 1.896457
v 4.828773 1.722450 2.071865
v 4.371810 1.011567 2.124123
v 5.457906 1.736213 1.897236
v 4.777192 2.217687 2.494442
v 3.673671 0.732026 2.618604
v 4.087799 1.476620 2.760207
v 5.119525 0.746875 1.855050
v 5.235574 2.441499 1.955845
v 2.404172 -0.755545 3.645627
v 1.891936 -1.055710 3.461679
v 2.904271 -1.204466 3.735595
v 3.811991 0.106258 4.004241
v 3.104466 -0.335806 3.859718
v 4.389746 -0.168323 4.135756
v 3.827365 0.663594 4.344290
v 2.224234 -0.198504 3.987755
v 2.835864 0.334352 4.284313
v 3.688238 -0.926543 3.968248
v 4.508492 0.560876 4.068956
v 1.382609 -0.579499 4.170619
v 1.664420 -0.767244 3.649412
v 1.812023 -0.196875 4.529680
v 0.540772 0.028174 5.503024
v 0.980208 -0.299499 4.857714
v 0.804721 0.405926 5.965763
v 0.068951 -0.293505 5.819882
v 0.922322 -1.042634 4.353280
v 0.432108 -0.902792 5.050494
v 1.547280 0.157302 5.271599
v 0.072656 0.399131 6.085466
v 0.861519 -2.733411 3.380495
v 1.065503 -2.151350 3.303569
v 0.542821 -2.779901 3.977146
v 0.199008 -4.283255 3.491508
v 0.556720 -3.516472 3.460112
v -0.131211 -4.507637 4.008327
v 0.472305 -4.820624 3.240439
v 1.272598 -3.158369 3.048608
v 1.096910 -4.004002 3.045324
v 0.182191 -3.529622 4.209175
v -0.206904 -5.011765 3.469422
v 2.344388 -2.923112 2.366590
v 2.560858 -2.439799 2.041214
v 2.557672 -2.872169 3.008180
v 1.622826 -4.168975 3.250013
v 2.016224 -3.562881 2.808665
v 1.728237 -4.280721 3.884753
v 1.489553 -4.761978 3.011101
v 2.269053 -3.454109 1.951752
v 1.949672 -4.194115 2.262172
v 2.311433 -3.464698 3.586323
v 1.168730 -4.722101 3.678766
v 4.373647 -0.651073 0.298001
v 3.920976 -1.047633 0.453406
v 4.787016 -0.950042 -0.148615
v 5.503162 0.498300 -0.208361
v 4.963347 -0.093789 0.065377
v 5.988663 0.378907 -0.628512
v 5.743463 0.972231 0.171293
v 4.490517 -0.232589 0.818517
v 5.080536 0.392866 0.736923
v 5.452175 -0.506406 -0.475303
v 5.974083 1.112551 -0.519662
v 0.414044 -1.545219 -4.133081
v 0.220411 -1.856101 -3.630906
v -0.059147 -1.588052 -4.616794
v 0.907621 -0.574416 -5.424277
v 0.668944 -1.090587 -4.796980
v 0.577877 -0.508734 -5.984140
v 1.529500 -0.484899 -5.602449
v 1.091566 -1.559230 -4.155250
v 1.504836 -1.143178 -4.789349
v 0.062506 -1.179303 -5.367858
v 1.122206 -0.004865 -5.994841
v 0.579652 -1.484519 -4.135420
v 0.060328 -1.507867 -3.794716
v 0.447606 -1.167227 -4.719896
v 2.038359 -1.312948 -4.969685
v 1.297628 -1.425270 -4.575222
v 2.096006 -1.041720 -5.560959
v 2.526784 -1.746124 -4.952610
v 0.968508 -2.019000 -3.984275
v 1.738970 -2.105370 -4.364934
v 1.086060 -1.037739 -5.286979
v 2.784126 -1.145691 -5.304104
v -2.322329 -0.358543 -3.908332
v -1.997697 -0.348106 -3.597831
v -2.296966 -0.782629 -4.152821
v -3.274212 -0.405955 -4.671799
v -2.781327 -0.377576 -4.309950
v -3.358037 -0.760248 -4.972382
v -3.461287 -0.030791 -4.888952
v -2.421816 0.099439 -4.051935
v -2.874177 0.198777 -4.470713
v -2.717686 -0.906827 -4.597165
v -3.790911 -0.443776 -4.980561
v -3.558841 -2.174229 -1.660655
v -3.029339 -2.461122 -1.506893
v -4.015056 -2.271621 -1.168613
v -4.930771 -1.265888 -2.042737
v -4.261531 -1.751511 -1.860560
v -5.476723 -1.252972 -1.684600
v -5.144581 -1.157487 -2.650213
v -3.613426 -2.156159 -2.336242
v -4.291804 -1.762139 -2.697525
v -4.795215 -1.906861 -1.233992
v -5.545599 -0.724579 -2.200692
v -3.390131 -2.567585 -2.292611
v -3.005652 -2.960461 -2.002530
v -4.024490 -2.681910 -2.082274
v -4.383846 -1.393014 -2.989872
v -3.899738 -2.006349 -2.663746
v -5.030894 -1.360446 -2.907648
v -4.292808 -1.137467 -3.583926
v -3.131987 -2.412281 -2.900036
v -3.548666 -1.851960 -3.408361
v -4.667348 -2.189919 -2.383359
v -4.827173 -0.739203 -3.258146
v -3.413777 -1.278746 -3.272818
v -3.414370 -1.591439 -2.920820
v -3.705977 -0.877261 -3.141568
v -3.307674 -0.400026 -4.196856
v -3.386381 -0.846338 -3.743005
v -3.547818 0.032463 -4.200591
v -3.250667 -0.504440 -4.677041
v -3.346658 -1.526490 -3.717695
v -3.310287 -1.184628 -4.274348
v -3.760664 -0.370871 -3.552215
v -3.175056 0.049529 -4.620741
v -2.709457 3.358495 1.010368
v -2.826138 2.750144 1.061516
v -2.807772 3.654747 1.612274
v -2.247020 4.977031 0.869814
v -2.513869 4.176592 0.940446
v -2.289147 5.416344 1.351189
v -2.319211 5.336182 0.329174
v -2.844126 3.557815 0.376444
v -2.703307 4.379364 0.150170
v -2.657739 4.500861 1.699189
v -1.909513 5.736791 0.800294
v -2.729051 0.482157 3.458510
v -2.333022 0.015171 3.351708
v -2.596087 0.751320 4.066453
v -3.724603 1.832825 3.653025
v -3.246839 1.137691 3.579327
v -3.740411 2.205940 4.188776
v -4.330808 1.882178 3.415178
v -3.310001 0.359824 3.131011
v -3.948819 0.939962 3.167420
v -3.053982 1.430671 4.339925
v -4.145898 2.552601 3.673315
vt 0.630879 0.155115
vt 0.630958 0.080167
vt 0.712614 0.182703
vt 0.635325 0.312311
vt 0.634610 0.229311
vt 0.691526 0.347443
vt 0.584304 0.353251
vt 0.551144 0.191853
vt 0.550187 0.280708
vt 0.724428 0.277307
vt 0.638186 0.396434
vt 0.630879 0.155115
vt 0.630958 0.080167
vt 0.712614 0.182703
vt 0.635325 0.312311
vt 0.634610 0.229311
vt 0.691526 0.347443
vt 0.584304 0.353251
vt 0.551144 0.191853
vt 0.550187 0.280708
vt 0.724428 0.277307
vt 0.638186 0.396434
vt 0.630879 0.155115
vt 0.630958 0.080167
vt 0.712614 0.182703
vt 0.635325 0.312311
vt 0.634610 0.229311
vt 0.691526 0.347443
vt 0.584304 0.353251
vt 0.551144 0.191853
vt 0.550187 0.280708
vt 0.724428 0.277307
vt 0.638186 0.396434
vt 0.630879 0.155115
vt 0.630958 0.080167
vt 0.712614 0.182703
vt 0.635325 0.312311
vt 0.634610 0.229311
vt 0.691526 0.347443
vt 0.584304 0.353251
vt 0.551144 0.191853
vt 0.550187 0.280708
vt 0.724428 0.277307
vt 0.638186 0.396434
vt 0.630879 0.155115
vt 0.630958 0.080167
vt 0.712614 0.182703
vt 0.635325 0.312311
vt 0.634610 0.229311
vt 0.691526 0.347443
vt 0.584304 0.353251
vt 0.551144 0.191853
vt 0.550187 0.280708
vt 0.724428 0.277307
vt 0.638186 0.396434
vt 0.630879 0.155115
vt 0.630958 0.080167
vt 0.712614 0.182703
vt 0.635325 0.312311
vt 0.634610 0.229311
vt 0.691526 0.347443
vt 0.584304 0.353251
vt 0.551144 0.191853
vt 0.550187 0.280708
vt 0.724428 0.277307
vt 0.638186 0.396434
vt 0.630879 0.155115
vt 0.630958 0.080167
vt 0.712614 0.182703
vt 0.635325 0.312311
vt 0.634610 0.229311
vt 0.691526 0.347443
vt 0.584304 0.353251
vt 0.551144 0.191853
vt 0.550187 0.280708
vt 0.724428 0.277307
vt 0.638186 0.396434
vt 0.630879 0.155115
vt 0.630958 0.080167
vt 0.712614 0.182703
vt 0.635325 0.312311
vt 0.634610 0.229311
vt 0.691526 0.347443
vt 0.584304 0.353251
vt 0.551144 0.191853
vt 0.550187 0.280708
vt 0.724428 0.277307
vt 0.638186 0.396434
vt 0.630879 0.155115
vt 0.630958 0.080167
vt 0.712614 0.182703
vt 0.635325 0.312311
vt 0.634610 0.229311
vt 0.691526 0.347443
vt 0.584304 0.353251
vt 0.551144 0.191853
vt 0.550187 0.280708
vt 0.724428 0.277307
vt 0.638186 0.396434
vt 0.630879 0.155115
vt 0.630958 0.080167
vt 0.712614 0.182703
vt 0.635325 0.312311
vt 0.634610 0.229311
vt 0.691526 0.347443
vt 0.584304 0.353251
vt 0.551144 0.191853
vt 0.550187 0.280708
vt 0.724428 0.277307
vt 0.638186 0.396434
vt 0.630879 0.155115
vt 0.630958 0.080167
vt 0.712614 0.182703
vt 0.635325 0.312311
vt 0.634610 0.229311
vt 0.691526 0.347443
vt 0.584304 0.353251
vt 0.551144 0.191853
vt 0.550187 0.280708
vt 0.724428 0.277307
vt 0.638186 0.396434
vt 0.630879 0.155115
vt 0.630958 0.080167
vt 0.712614 0.182703
vt 0.635325 0.312311
vt 0.634610 0.229311
vt 0.691526 0.347443
vt 0.584304 0.353251
vt 0.551144 0.191853
vt 0.550187 0.280708
vt 0.724428 0.277307
vt 0.638186 0.396434
vt 0.630879 0.155115
vt 0.630958 0.080167
vt 0.712614 0.182703
vt 0.635325 0.312311
vt 0.634610 0.229311
vt 0.691526 0.347443
vt 0.584304 0.353251
vt 0.551144 0.191853
vt 0.550187 0.280708
vt 0.724428 0.277307
vt 0.638186 0.396434
vt 0.630879 0.155115
vt 0.630958 0.080167
vt 0.712614 0.182703
vt 0.635325 0.312311
vt 0.634610 0.229311
vt 0.691526 0.347443
vt 0.584304 0.353251
vt 0.551144 0.191853
vt 0.550187 0.280708
vt 0.724428 0.277307
vt 0.638186 0.396434
vt 0.630879 0.155115
vt 0.630958 0.080167
vt 0.712614 0.182703
vt 0.635325 0.312311
vt 0.634610 0.229311
vt 0.691526 0.347443
vt 0.584304 0.353251
vt 0.551144 0.191853
vt 0.550187 0.280708
vt 0.724428 0.277307
vt 0.638186 0.396434
vt 0.630879 0.155115
vt 0.630958 0.080167
vt 0.712614 0.182703
vt 0.635325 0.312311
vt 0.634610 0.229311
vt 0.691526 0.347443
vt 0.584304 0.353251
vt 0.551144 0.191853
vt 0.550187 0.280708
vt 0.724428 0.277307
vt 0.638186 0.396434
vn 0.5603 0.5907 0.5806
vn 0.4736 0.7038 0.5294
vn 0.9103 0.3894 0.1403
vn 0.8910 0.3526 0.2859
vn 0.8931 0.3696 0.2563
vn 0.5350 0.6304 0.5625
vn 0.9122 0.4083 0.0357
vn 0.4050 0.7734 0.4876
vn 0.8968 0.4033 0.1819
vn 0.5125 0.6800 0.5244
vn 0.8983 0.3688 0.2387
vn 0.5484 0.6178 0.5636
vn 0.7263 0.0366 0.6864
vn 0.7689 0.1647 0.6178
vn 0.8402 -0.4298 0.3308
vn 0.7803 -0.4137 0.4690
vn 0.7988 -0.4097 0.4405
vn 0.7444 0.0776 0.6632
vn 0.8699 -0.4369 0.2290
vn 0.7871 0.2536 0.5623
vn 0.8373 -0.4039 0.3685
vn 0.7745 0.1194 0.6212
vn 0.8037 -0.4171 0.4244
vn 0.7426 0.0597 0.6671
vn 0.2613 -0.2510 0.9320
vn 0.2681 -0.1019 0.9580
vn 0.7089 -0.4137 0.5713
vn 0.5951 -0.4871 0.6392
vn 0.6202 -0.4651 0.6317
vn 0.2675 -0.2020 0.9421
vn 0.7793 -0.3578 0.5145
vn 0.2674 0.0042 0.9636
vn 0.6790 -0.4143 0.6061
vn 0.2911 -0.1399 0.9464
vn 0.6342 -0.4613 0.6205
vn 0.2722 -0.2189 0.9370
vn -0.2752 -0.1153 0.9545
vn -0.2125 0.0208 0.9769
vn 0.1516 -0.5179 0.8419
vn 0.0006 -0.5232 0.8522
vn 0.0336 -0.5152 0.8564
vn -0.2520 -0.0718 0.9651
vn 0.2556 -0.5087 0.8221
vn -0.1673 0.1169 0.9790
vn 0.1137 -0.4988 0.8592
vn -0.2068 -0.0247 0.9781
vn 0.0509 -0.5199 0.8527
vn -0.2539 -0.0899 0.9630
vn 0.3315 -0.8162 0.4732
vn 0.2002 -0.8118 0.5485
vn 0.6765 -0.3590 0.6430
vn 0.6923 -0.4732 0.5448
vn 0.6835 -0.4539 0.5716
vn 0.2900 -0.8148 0.5019
vn 0.6576 -0.2728 0.7023
vn 0.1043 -0.7987 0.5926
vn 0.6638 -0.4014 0.6311
vn 0.2444 -0.8000 0.5480
vn 0.6864 -0.4381 0.5805
vn 0.3074 -0.8114 0.4971
vn 0.8632 -0.2441 0.4420
vn 0.8456 -0.3791 0.3757
vn 0.4549 -0.1765 0.8729
vn 0.5672 -0.0906 0.8186
vn 0.5478 -0.1170 0.8284
vn 0.8578 -0.2908 0.4238
vn 0.3689 -0.2328 0.8998
vn 0.8227 -0.4682 0.3224
vn 0.4951 -0.1754 0.8509
vn 0.8391 -0.3538 0.4133
vn 0.5327 -0.1222 0.8374
vn 0.8563 -0.2770 0.4358
vn 0.8203 -0.5231 -0.2312
vn 0.7286 -0.6436 -0.2343
vn 0.8832 -0.3320 0.3313
vn 0.9374 -0.2871 0.1972
vn 0.9255 -0.3058 0.2233
vn 0.7925 -0.5651 -0.2295
vn 0.8334 -0.3572 0.4218
vn 0.6539 -0.7191 -0.2352
vn 0.8937 -0.3438 0.2883
vn 0.7576 -0.6181 -0.2096
vn 0.9210 -0.3058 0.2411
vn 0.8035 -0.5518 -0.2233
vn 0.5615 -0.3464 0.7515
vn 0.6115 -0.2040 0.7645
vn 0.7702 -0.5881 0.2467
vn 0.6817 -0.6373 0.3593
vn 0.7056 -0.6212 0.3410
vn 0.5821 -0.3005 0.7556
vn 0.8212 -0.5469 0.1630
vn 0.6368 -0.1008 0.7644
vn 0.7582 -0.5837 0.2907
vn 0.6184 -0.2456 0.7465
vn 0.7141 -0.6201 0.3248
vn 0.5803 -0.3178 0.7498
vn 0.4317 -0.8320 -0.3486
vn 0.5383 -0.7397 -0.4038
vn -0.0778 -0.7551 -0.6510
vn -0.0350 -0.8436 -0.5358
vn -0.0355 -0.8248 -0.5643
vn 0.4665 -0.8030 -0.3708
vn -0.1087 -0.6828 -0.7225
vn 0.6069 -0.6649 -0.4354
vn -0.0431 -0.7759 -0.6294
vn 0.4993 -0.7623 -0.4119
vn -0.0461 -0.8159 -0.5764
vn 0.4510 -0.8126 -0.3692
vn -0.2372 -0.8752 -0.4215
vn -0.0882 -0.9021 -0.4224
vn -0.3671 -0.4460 -0.8163
vn -0.4484 -0.5298 -0.7199
vn -0.4247 -0.5188 -0.7419
vn -0.1879 -0.8850 -0.4260
vn -0.3063 -0.3797 -0.8729
vn 0.0177 -0.9094 -0.4155
vn -0.3699 -0.4851 -0.7924
vn -0.1244 -0.8865 -0.4457
vn -0.4200 -0.5056 -0.7537
vn -0.2045 -0.8789 -0.4309
vn 0.6205 0.4192 -0.6628
vn 0.4975 0.4898 -0.7160
vn 0.5899 -0.1635 -0.7907
vn 0.6905 -0.0756 -0.7194
vn 0.6663 -0.0874 -0.7405
vn 0.5805 0.4412 -0.6844
vn 0.5119 -0.2247 -0.8291
vn 0.4045 0.5341 -0.7424
vn 0.6069 -0.1213 -0.7854
vn 0.5256 0.4537 -0.7197
vn 0.6574 -0.1023 -0.7465
vn 0.5933 0.4284 -0.6815
vn -0.3169 -0.8304 -0.4582
vn -0.3830 -0.7368 -0.5572
vn -0.5980 -0.7986 0.0680
vn -0.4798 -0.8773 0.0153
vn -0.5094 -0.8604 0.0181
vn -0.3425 -0.8013 -0.4904
vn -0.6723 -0.7327 0.1059
vn -0.4225 -0.6609 -0.6203
vn -0.5770 -0.8162 0.0312
vn -0.3877 -0.7618 -0.5191
vn -0.5214 -0.8528 0.0297
vn -0.3396 -0.8115 -0.4755
vn -0.1242 -0.6652 -0.7363
vn -0.1326 -0.5449 -0.8279
vn -0.6105 -0.6893 -0.3901
vn -0.4862 -0.7745 -0.4046
vn -0.5128 -0.7539 -0.4107
vn -0.1307 -0.6267 -0.7682
vn -0.6898 -0.6207 -0.3727
vn -0.1348 -0.4530 -0.8813
vn -0.5762 -0.7027 -0.4174
vn -0.1556 -0.5756 -0.8028
vn -0.5283 -0.7468 -0.4039
vn -0.1355 -0.6399 -0.7564
vn -0.7981 -0.4498 -0.4009
vn -0.7368 -0.4138 -0.5347
vn -0.9908 0.0451 -0.1274
vn -0.9905 -0.1022 -0.0925
vn -0.9914 -0.0724 -0.1092
vn -0.7814 -0.4360 -0.4465
vn -0.9777 0.1485 -0.1484
vn -0.6827 -0.3845 -0.6213
vn -0.9897 0.0021 -0.1431
vn -0.7662 -0.4019 -0.5015
vn -0.9927 -0.0542 -0.1077
vn -0.7908 -0.4347 -0.4308
vn -0.9576 0.1637 -0.2370
vn -0.9045 0.2726 -0.3279
vn -0.8850 0.3245 0.3338
vn -0.9429 0.2031 0.2641
vn -0.9332 0.2349 0.2721
vn -0.9426 0.2027 -0.2654
vn -0.8320 0.4044 0.3797
vn -0.8547 0.3441 -0.3888
vn -0.9044 0.3077 0.2957
vn -0.9215 0.2620 -0.2867
vn -0.9264 0.2459 0.2852
vn -0.9485 0.1939 -0.2504
vn -0.6408 -0.6403 0.4236
vn -0.7493 -0.5536 0.3634
vn -0.3671 -0.3439 0.8643
vn -0.3513 -0.4815 0.8030
vn -0.3640 -0.4519 0.8144
vn -0.6786 -0.6111 0.4075
vn -0.3714 -0.2426 0.8962
vn -0.8154 -0.4861 0.3145
vn -0.3870 -0.3780 0.8410
vn -0.7235 -0.5626 0.4001
vn -0.3606 -0.4367 0.8242
vn -0.6658 -0.6174 0.4190
s 1
f 1/1/1 2/2/1 3/3/1
f 4/4/2 5/5/2 6/6/2
f 7/7/3 5/5/3 4/4/3
f 8/8/4 2/2/4 1/1/4
f 9/9/5 8/8/5 1/1/5
f 5/5/6 1/1/6 10/10/6
f 11/11/7 7/7/7 4/4/7
f 11/11/8 4/4/8 6/6/8
f 5/5/9 7/7/9 9/9/9
f 6/6/10 5/5/10 10/10/10
f 1/1/11 5/5/11 9/9/11
f 10/10/12 1/1/12 3/3/12
f 12/12/13 13/13/13 14/14/13
f 15/15/14 16/16/14 17/17/14
f 18/18/15 16/16/15 15/15/15
f 19/19/16 13/13/16 12/12/16
f 20/20/17 19/19/17 12/12/17
f 16/16/18 12/12/18 21/21/18
f 22/22/19 18/18/19 15/15/19
f 22/22/20 15/15/20 17/17/20
f 16/16/21 18/18/21 20/20/21
f 17/17/22 16/16/22 21/21/22
f 12/12/23 16/16/23 20/20/23
f 21/21/24 12/12/24 14/14/24
f 23/23/25 24/24/25 25/25/25
f 26/26/26 27/27/26 28/28/26
f 29/29/27 27/27/27 26/26/27
f 30/30/28 24/24/28 23/23/28
f 31/31/29 30/30/29 23/23/29
f 27/27/30 23/23/30 32/32/30
f 33/33/31 29/29/31 26/26/31
f 33/33/32 26/26/32 28/28/32
f 27/27/33 29/29/33 31/31/33
f 28/28/34 27/27/34 32/32/34
f 23/23/35 27/27/35 31/31/35
f 32/32/36 23/23/36 25/25/36
f 34/34/37 35/35/37 36/36/37
f 37/37/38 38/38/38 39/39/38
f 40/40/39 38/38/39 37/37/39
f 41/41/40 35/35/40 34/34/40
f 42/42/41 41/41/41 34/34/41
f 38/38/42 34/34/42 43/43/42
f 44/44/43 40/40/43 37/37/43
f 44/44/44 37/37/44 39/39/44
f 38/38/45 40/40/45 42/42/45
f 39/39/46 38/38/46 43/43/46
f 34/34/47 38/38/47 42/42/47
f 43/43/48 34/34/48 36/36/48
f 45/45/49 46/46/49 47/47/49
f 48/48/50 49/49/50 50/50/50
f 51/51/51 49/49/51 48/48/51
f 52/52/52 46/46/52 45/45/52
f 53/53/53 52/52/53 45/45/53
f 49/49/54 45/45/54 54/54/54
f 55/55/55 51/51/55 48/48/55
f 55/55/56 48/48/56 50/50/56
f 49/49/57 51/51/57 53/53/57
f 50/50/58 49/49/58 54/54/58
f 45/45/59 49/49/59 53/53/59
f 54/54/60 45/45/60 47/47/60
f 56/56/61 57/57/61 58/58/61
f 59/59/62 60/60/62 61/61/62
f 62/62/63 60/60/63 59/59/63
f 63/63/64 57/57/64 56/56/64
f 64/64/65 63/63/65 56/56/65
f 60/60/66 56/56/66 65/65/66
f 66/66/67 62/62/67 59/59/67
f 66/66/68 59/59/68 61/61/68
f 60/60/69 62/62/69 64/64/69
f 61/61/70 60/60/70 65/65/70
f 56/56/71 60/60/71 64/64/71
f 65/65/72 56/56/72 58/58/72
f 67/67/73 68/68/73 69/69/73
f 70/70/74 71/71/74 72/72/74
f 73/73/75 71/71/75 70/70/75
f 74/74/76 68/68/76 67/67/76
f 75/75/77 74/74/77 67/67/77
f 71/71/78 67/67/78 76/76/78
f 77/77/79 73/73/79 70/70/79
f 77/77/80 70/70/80 72/72/80
f 71/71/81 73/73/81 75/75/81
f 72/72/82 71/71/82 76/76/82
f 67/67/83 71/71/83 75/75/83
f 76/76/84 67/67/84 69/69/84
f 78/78/85 79/79/85 80/80/85
f 81/81/86 82/82/86 83/83/86
f 84/84/87 82/82/87 81/81/87
f 85/85/88 79/79/88 78/78/88
f 86/86/89 85/85/89 78/78/89
f 82/82/90 78/78/90 87/87/90
f 88/88/91 84/84/91 81/81/91
f 88/88/92 81/81/92 83/83/92
f 82/82/93 84/84/93 86/86/93
f 83/83/94 82/82/94 87/87/94
f 78/78/95 82/82/95 86/86/95
f 87/87/96 78/78/96 80/80/96
f 89/89/97 90/90/97 91/91/97
f 92/92/98 93/93/98 94/94/98
f 95/95/99 93/93/99 92/92/99
f 96/96/100 90/90/100 89/89/100
f 97/97/101 96/96/101 89/89/101
f 93/93/102 89/89/102 98/98/102
f 99/99/103 95/95/103 92/92/103
f 99/99/104 92/92/104 94/94/104
f 93/93/105 95/95/105 97/97/105
f 94/94/106 93/93/106 98/98/106
f 89/89/107 93/93/107 97/97/107
f 98/98/108 89/89/108 91/91/108
f 100/100/109 101/101/109 102/102/109
f 103/103/110 104/104/110 105/105/110
f 106/106/111 104/104/111 103/103/111
f 107/107/112 101/101/112 100/100/112
f 108/108/113 107/107/113 100/100/113
f 104/104/114 100/100/114 109/109/114
f 110/110/115 106/106/115 103/103/115
f 110/110/116 103/103/116 105/105/116
f 104/104/117 106/106/117 108/108/117
f 105/105/118 104/104/118 109/109/118
f 100/100/119 104/104/119 108/108/119
f 109/109/120 100/100/120 102/102/120
f 111/111/121 112/112/121 113/113/121
f 114/114/122 115/115/122 116/116/122
f 117/117/123 115/115/123 114/114/123
f 118/118/124 112/112/124 111/111/124
f 119/119/125 118/118/125 111/111/125
f 115/115/126 111/111/126 120/120/126
f 121/121/127 117/117/127 114/114/127
f 121/121/128 114/114/128 116/116/128
f 115/115/129 117/117/129 119/119/129
f 116/116/130 115/115/130 120/120/130
f 111/111/131 115/115/131 119/119/131
f 120/120/132 111/111/132 113/113/132
f 122/122/133 123/123/133 124/124/133
f 125/125/134 126/126/134 127/127/134
f 128/128/135 126/126/135 125/125/135
f 129/129/136 123/123/136 122/122/136
f 130/130/137 129/129/137 122/122/137
f 126/126/138 122/122/138 131/131/138
f 132/132/139 128/128/139 125/125/139
f 132/132/140 125/125/140 127/127/140
f 126/126/141 128/128/141 130/130/141
f 127/127/142 126/126/142 131/131/142
f 122/122/143 126/126/143 130/130/143
f 131/131/144 122/122/144 124/124/144
f 133/133/145 134/134/145 135/135/145
f 136/136/146 137/137/146 138/138/146
f 139/139/147 137/137/147 136/136/147
f 140/140/148 134/134/148 133/133/148
f 141/141/149 140/140/149 133/133/149
f 137/137/150 133/133/150 142/142/150
f 143/143/151 139/139/151 136/136/151
f 143/143/152 136/136/152 138/138/152
f 137/137/153 139/139/153 141/141/153
f 138/138/154 137/137/154 142/142/154
f 133/133/155 137/137/155 141/141/155
f 142/142/156 133/133/156 135/135/156
f 144/144/157 145/145/157 146/146/157
f 147/147/158 148/148/158 149/149/158
f 150/150/159 148/148/159 147/147/159
f 151/151/160 145/145/160 144/144/160
f 152/152/161 151/151/161 144/144/161
f 148/148/162 144/144/162 153/153/162
f 154/154/163 150/150/163 147/147/163
f 154/154/164 147/147/164 149/149/164
f 148/148/165 150/150/165 152/152/165
f 149/149/166 148/148/166 153/153/166
f 144/144/167 148/148/167 152/152/167
f 153/153/168 144/144/168 146/146/168
f 155/155/169 156/156/169 157/157/169
f 158/158/170 159/159/170 160/160/170
f 161/161/171 159/159/171 158/158/171
f 162/162/172 156/156/172 155/155/172
f 163/163/173 162/162/173 155/155/173
f 159/159/174 155/155/174 164/164/174
f 165/165/175 161/161/175 158/158/175
f 165/165/176 158/158/176 160/160/176
f 159/159/177 161/161/177 163/163/177
f 160/160/178 159/159/178 164/164/178
f 155/155/179 159/159/179 163/163/179
f 164/164/180 155/155/180 157/157/180
f 166/166/181 167/167/181 168/168/181
f 169/169/182 170/170/182 171/171/182
f 172/172/183 170/170/183 169/169/183
f 173/173/184 167/167/184 166/166/184
f 174/174/185 173/173/185 166/166/185
f 170/170/186 166/166/186 175/175/186
f 176/176/187 172/172/187 169/169/187
f 176/176/188 169/169/188 171/171/188
f 170/170/189 172/172/189 174/174/189
f 171/171/190 170/170/190 175/175/190
f 166/166/191 170/170/191 174/174/191
f 175/175/192 166/166/192 168/168/192
