# Blender 3.3.0
# www.blender.org
o leaf1
v 0.998780 0.366642 0.229544
v 0.158831 0.290200 0.624952
v -0.049985 0.500283 0.632261
v -0.499318 0.517924 0.568009
v -0.820266 0.504417 0.445353
v -0.922727 0.370862 0.137163
v -0.645497 0.290200 -0.052074
v -0.344169 0.290200 -0.066843
v -0.156573 0.290200 0.042213
v -0.222229 0.319473 -0.212112
v -0.127066 0.290200 -0.659175
v 0.165087 0.184802 -0.913720
v 0.409720 0.290200 -0.718910
v 0.565924 0.319473 -0.382732
v 0.524716 0.259974 0.092131
v 0.918286 0.305612 0.140498
v 0.782171 0.437308 0.556693
v 0.495293 0.429772 0.699776
v 0.387736 0.345450 0.542724
v 0.162201 0.184802 -0.203970
v 0.160586 0.184802 0.193455
v -0.186941 0.290200 0.452616
vn -0.3161 0.9099 -0.2687
vn 0.2892 0.8395 -0.4600
vn -0.3946 0.9189 -0.0016
vn -0.0870 0.9736 -0.2111
vn 0.3991 0.8911 -0.2160
vn -0.0000 1.0000 -0.0000
vn -0.2341 0.8876 -0.3967
vn -0.2003 0.9138 -0.3534
vn -0.3168 0.9089 -0.2711
vn -0.2027 0.9209 -0.3331
vn -0.2945 0.9541 0.0537
vn -0.3169 0.9484 -0.0013
vn -0.2578 0.9384 -0.2303
vn -0.1722 0.9792 0.1077
vn 0.3306 0.9438 0.0013
vn 0.3015 0.9529 0.0319
vn 0.3404 0.9403 0.0014
vn 0.3304 0.9438 0.0085
vn 0.4030 0.4287 -0.8086
vn 0.1369 0.5907 -0.7952
vn 0.2373 0.6780 -0.6957
vn 0.1745 0.9718 -0.1586
vt 0.490194 0.698946
vt 0.303014 0.609813
vt 0.252231 0.598039
vt 0.147659 0.600801
vt 0.075286 0.671156
vt 0.060298 0.729202
vt 0.130861 0.759893
vt 0.189024 0.756430
vt 0.238871 0.730742
vt 0.218926 0.797389
vt 0.244708 0.896257
vt 0.308132 0.959276
vt 0.376220 0.890817
vt 0.399809 0.813412
vt 0.362592 0.709873
vt 0.443859 0.718371
vt 0.464629 0.641672
vt 0.409387 0.599474
vt 0.372584 0.643600
vt 0.305771 0.798079
vt 0.304450 0.707815
vt 0.224894 0.649788
s 0
f 19/19/1 15/15/1 2/2/1
f 6/6/2 5/5/2 22/22/2
f 12/12/3 20/20/3 13/13/3
f 15/15/4 19/19/4 16/16/4
f 9/9/5 2/2/5 21/21/5
f 2/2/6 9/9/6 22/22/6
f 16/16/7 19/19/7 1/1/7
f 17/17/8 19/19/8 18/18/8
f 18/18/9 19/19/9 2/2/9
f 1/1/10 19/19/10 17/17/10
f 13/13/11 20/20/11 14/14/11
f 14/14/12 20/20/12 21/21/12
f 21/21/13 2/2/13 15/15/13
f 15/15/14 14/14/14 21/21/14
f 10/10/15 21/21/15 20/20/15
f 21/21/16 10/10/16 9/9/16
f 11/11/17 20/20/17 12/12/17
f 20/20/18 11/11/18 10/10/18
f 22/22/6 8/8/6 7/7/6
f 22/22/6 9/9/6 8/8/6
f 22/22/19 3/3/19 2/2/19
f 3/3/20 22/22/20 4/4/20
f 22/22/21 5/5/21 4/4/21
f 7/7/22 6/6/22 22/22/22
