# Blender v2.93.10 OBJ File: 'flower_0402.blend'
# www.blender.org
o leaf0.007
v -0.104869 -2.967404 -1.337222
v -0.088556 -2.568577 -1.164632
v -0.188882 -2.931855 -1.802762
v -0.044969 -4.053893 -1.798437
v -0.100521 -3.510201 -1.569834
v -0.118360 -4.152204 -2.238586
v -0.174761 -4.434362 -1.581229
v -0.257082 -3.273043 -1.007880
v -0.297939 -3.860504 -1.143523
v -0.212455 -3.432850 -2.139846
v 0.064995 -4.584023 -2.016551
v 1.819354 0.925160 3.421527
v 2.103423 0.771574 3.598720
v 1.912636 1.304476 3.327297
v 1.071249 1.295400 2.868923
v 1.439295 1.121934 3.162587
v 1.057753 1.657666 2.733379
v 0.698402 1.202256 2.914741
v 1.478105 0.753790 3.546601
v 1.032954 0.898187 3.339267
v 1.577605 1.588429 3.064386
v 0.726159 1.438785 2.545208
v 0.694826 2.188586 3.416630
v 0.652998 2.409245 3.513884
v 0.499508 2.022147 3.490304
v 0.790478 1.611056 3.100875
v 0.747098 1.894277 3.271339
v 0.642116 1.403051 3.130022
v 1.021247 1.512659 3.044395
v 0.957956 2.154685 3.386764
v 1.074870 1.868124 3.245783
v 0.500240 1.701998 3.375562
v 0.822991 1.347515 2.907487
v 4.264382 0.000557 -2.998924
v 4.626461 -0.066313 -2.988496
v 4.084186 -0.284569 -3.217314
v 3.276441 0.152415 -2.943980
v 3.771201 0.083854 -2.991906
v 3.011458 -0.062348 -3.126878
v 3.109509 0.500786 -2.920263
v 4.202750 0.396378 -2.967473
v 3.723841 0.576802 -2.957997
v 3.575229 -0.276712 -3.271153
v 2.793184 0.203059 -2.852676
v 2.737808 1.250196 -3.934358
v 2.729619 1.561165 -4.238247
v 2.926265 1.426823 -3.536443
v 2.657090 0.419549 -3.097534
v 2.722738 0.831171 -3.518490
v 2.814270 0.466248 -2.671042
v 2.691027 -0.029482 -3.175001
v 2.777239 0.827382 -4.145835
v 2.779360 0.325514 -3.809232
v 2.966153 1.076868 -3.045405
v 2.537985 0.027014 -2.682282
v 3.916661 -1.344549 -3.040062
v 4.150889 -1.614512 -3.129162
v 3.743015 -1.205305 -3.374606
v 3.224972 -0.673715 -2.768665
v 3.584241 -0.993573 -2.911504
v 3.005693 -0.472926 -3.016438
v 3.257386 -0.436752 -2.464382
v 4.047364 -1.161562 -2.707055
v 3.771422 -0.781473 -2.503622
v 3.389944 -0.836300 -3.340346
v 2.846000 -0.396381 -2.614058
v 2.296827 -1.368200 -3.708980
v 2.180612 -1.725659 -3.927690
v 2.036309 -1.001843 -3.860514
v 2.559475 -0.434951 -3.033090
v 2.441267 -0.892021 -3.390944
v 2.380567 -0.018025 -3.087367
v 2.972823 -0.351421 -2.857171
v 2.752473 -1.404989 -3.582159
v 3.006950 -0.964427 -3.256085
v 2.109294 -0.459114 -3.604981
v 2.645885 -0.010961 -2.641337
v 1.771601 -2.125565 2.126032
v 1.208228 -1.869395 2.318854
v 1.688858 -2.821280 2.030308
v 3.275164 -2.759301 1.461878
v 2.530407 -2.457890 1.828269
v 3.386744 -3.415872 1.319227
v 3.894757 -2.523079 1.617401
v 2.303153 -1.741706 2.390862
v 3.152726 -1.960589 2.186679
v 2.382756 -3.313753 1.734751
v 3.984671 -3.018906 1.030365
v -0.671567 -0.165196 -3.676639
v -0.264439 0.147857 -3.562268
v -0.646138 -0.634464 -3.347130
v -1.850914 -0.935433 -3.922632
v -1.243535 -0.570241 -3.815609
v -1.961133 -1.422718 -3.685933
v -2.105834 -0.969269 -4.412012
v -0.821111 -0.086150 -4.225112
v -1.392135 -0.451731 -4.498685
v -1.172819 -1.139004 -3.398201
v -2.480707 -1.247354 -3.991920
v -2.345977 -0.007333 -2.736237
v -2.364437 0.199374 -2.168023
v -2.036571 0.434156 -3.116788
v -2.190886 -0.660023 -4.237118
v -2.294186 -0.311451 -3.497593
v -1.927785 -0.362232 -4.733188
v -2.616236 -1.048338 -4.505959
v -2.869052 -0.395489 -2.842021
v -2.959347 -0.774135 -3.587061
v -1.915894 0.265762 -3.931460
v -2.034120 -1.047803 -4.933037
v -0.723873 -1.524183 -2.819487
v -0.620870 -1.552210 -2.466944
v -1.097188 -1.376465 -2.836120
v -0.951382 -1.376844 -3.783147
v -0.850548 -1.467975 -3.300121
v -1.292424 -1.244817 -3.909831
v -0.827408 -1.600134 -4.073943
v -0.534886 -1.806117 -3.034565
v -0.609254 -1.829087 -3.540469
v -1.314057 -1.290550 -3.291733
v -1.021310 -1.250024 -4.255867
v -2.247346 -0.939372 -2.625547
v -2.074947 -0.946831 -2.226373
v -2.720429 -0.936943 -2.590380
v -2.689284 -0.818080 -3.714925
v -2.474927 -0.903528 -3.169311
v -3.135374 -0.812416 -3.813687
v -2.498918 -0.992461 -4.091931
v -1.950820 -1.154656 -2.926835
v -2.091196 -1.181699 -3.513982
v -3.055842 -0.908812 -3.092262
v -2.883476 -0.680768 -4.247972
vt 0.630879 0.155115
vt 0.630958 0.080167
vt 0.712614 0.182703
vt 0.635325 0.312311
vt 0.634610 0.229311
vt 0.691526 0.347443
vt 0.584304 0.353251
vt 0.551144 0.191853
vt 0.550187 0.280708
vt 0.724428 0.277307
vt 0.638186 0.396434
vt 0.630879 0.155115
vt 0.630958 0.080167
vt 0.712614 0.182703
vt 0.635325 0.312311
vt 0.634610 0.229311
vt 0.691526 0.347443
vt 0.584304 0.353251
vt 0.551144 0.191853
vt 0.550187 0.280708
vt 0.724428 0.277307
vt 0.638186 0.396434
vt 0.630879 0.155115
vt 0.630958 0.080167
vt 0.712614 0.182703
vt 0.635325 0.312311
vt 0.634610 0.229311
vt 0.691526 0.347443
vt 0.584304 0.353251
vt 0.551144 0.191853
vt 0.550187 0.280708
vt 0.724428 0.277307
vt 0.638186 0.396434
vt 0.630879 0.155115
vt 0.630958 0.080167
vt 0.712614 0.182703
vt 0.635325 0.312311
vt 0.634610 0.229311
vt 0.691526 0.347443
vt 0.584304 0.353251
vt 0.551144 0.191853
vt 0.550187 0.280708
vt 0.724428 0.277307
vt 0.638186 0.396434
vt 0.630879 0.155115
vt 0.630958 0.080167
vt 0.712614 0.182703
vt 0.635325 0.312311
vt 0.634610 0.229311
vt 0.691526 0.347443
vt 0.584304 0.353251
vt 0.551144 0.191853
vt 0.550187 0.280708
vt 0.724428 0.277307
vt 0.638186 0.396434
vt 0.630879 0.155115
vt 0.630958 0.080167
vt 0.712614 0.182703
vt 0.635325 0.312311
vt 0.634610 0.229311
vt 0.691526 0.347443
vt 0.584304 0.353251
vt 0.551144 0.191853
vt 0.550187 0.280708
vt 0.724428 0.277307
vt 0.638186 0.396434
vt 0.630879 0.155115
vt 0.630958 0.080167
vt 0.712614 0.182703
vt 0.635325 0.312311
vt 0.634610 0.229311
vt 0.691526 0.347443
vt 0.584304 0.353251
vt 0.551144 0.191853
vt 0.550187 0.280708
vt 0.724428 0.277307
vt 0.638186 0.396434
vt 0.630879 0.155115
vt 0.630958 0.080167
vt 0.712614 0.182703
vt 0.635325 0.312311
vt 0.634610 0.229311
vt 0.691526 0.347443
vt 0.584304 0.353251
vt 0.551144 0.191853
vt 0.550187 0.280708
vt 0.724428 0.277307
vt 0.638186 0.396434
vt 0.630879 0.155115
vt 0.630958 0.080167
vt 0.712614 0.182703
vt 0.635325 0.312311
vt 0.634610 0.229311
vt 0.691526 0.347443
vt 0.584304 0.353251
vt 0.551144 0.191853
vt 0.550187 0.280708
vt 0.724428 0.277307
vt 0.638186 0.396434
vt 0.630879 0.155115
vt 0.630958 0.080167
vt 0.712614 0.182703
vt 0.635325 0.312311
vt 0.634610 0.229311
vt 0.691526 0.347443
vt 0.584304 0.353251
vt 0.551144 0.191853
vt 0.550187 0.280708
vt 0.724428 0.277307
vt 0.638186 0.396434
vt 0.630879 0.155115
vt 0.630958 0.080167
vt 0.712614 0.182703
vt 0.635325 0.312311
vt 0.634610 0.229311
vt 0.691526 0.347443
vt 0.584304 0.353251
vt 0.551144 0.191853
vt 0.550187 0.280708
vt 0.724428 0.277307
vt 0.638186 0.396434
vt 0.630879 0.155115
vt 0.630958 0.080167
vt 0.712614 0.182703
vt 0.635325 0.312311
vt 0.634610 0.229311
vt 0.691526 0.347443
vt 0.584304 0.353251
vt 0.551144 0.191853
vt 0.550187 0.280708
vt 0.724428 0.277307
vt 0.638186 0.396434
vn -0.9840 -0.0354 0.1749
vn -0.9623 -0.1830 0.2013
vn -0.9101 0.0781 -0.4070
vn -0.9444 0.1623 -0.2858
vn -0.9414 0.1367 -0.3083
vn -0.9798 -0.0853 0.1808
vn -0.8729 0.0195 -0.4875
vn -0.9335 -0.2838 0.2190
vn -0.9278 0.0790 -0.3647
vn -0.9737 -0.1508 0.1707
vn -0.9364 0.1319 -0.3253
vn -0.9826 -0.0695 0.1720
vn -0.3771 0.3096 0.8729
vn -0.5126 0.2841 0.8103
vn -0.1200 0.7816 0.6121
vn -0.0798 0.6864 0.7228
vn -0.0976 0.7062 0.7013
vn -0.4233 0.3051 0.8531
vn -0.1448 0.8383 0.5257
vn -0.6008 0.2604 0.7558
vn -0.1341 0.7526 0.6447
vn -0.4796 0.3146 0.8191
vn -0.0967 0.7190 0.6883
vn -0.4076 0.3133 0.8577
vn 0.5255 -0.2578 0.8108
vn 0.6125 -0.3367 0.7152
vn -0.0109 -0.5169 0.8560
vn 0.0533 -0.3942 0.9175
vn 0.0478 -0.4252 0.9039
vn 0.5538 -0.2874 0.7815
vn -0.0576 -0.5952 0.8015
vn 0.6664 -0.3859 0.6380
vn 0.0281 -0.4959 0.8679
vn 0.5768 -0.3373 0.7440
vn 0.0352 -0.4374 0.8986
vn 0.5400 -0.2829 0.7927
vn 0.1257 0.5520 -0.8243
vn 0.0139 0.6383 -0.7697
vn -0.0932 0.0231 -0.9954
vn 0.0445 0.0860 -0.9953
vn 0.0107 0.0809 -0.9967
vn 0.0865 0.5802 -0.8099
vn -0.1879 -0.0232 -0.9819
vn -0.0635 0.6913 -0.7197
vn -0.0688 0.0619 -0.9957
vn 0.0255 0.6034 -0.7970
vn -0.0026 0.0684 -0.9977
vn 0.0953 0.5666 -0.8184
vn 0.9101 -0.2771 -0.3081
vn 0.8663 -0.4179 -0.2735
vn 0.9804 0.0408 0.1928
vn 0.9965 0.0704 0.0451
vn 0.9956 0.0550 0.0757
vn 0.8991 -0.3243 -0.2942
vn 0.9555 0.0214 0.2943
vn 0.8230 -0.5114 -0.2473
vn 0.9882 0.0238 0.1510
vn 0.8879 -0.3799 -0.2595
vn 0.9939 0.0574 0.0938
vn 0.9056 -0.3072 -0.2925
vn 0.7345 0.6709 -0.1020
vn 0.6676 0.7444 0.0124
vn 0.3927 0.7049 -0.5907
vn 0.5262 0.6410 -0.5588
vn 0.4990 0.6618 -0.5595
vn 0.7122 0.6988 -0.0664
vn 0.2932 0.7389 -0.6067
vn 0.6126 0.7848 0.0938
vn 0.4298 0.7051 -0.5639
vn 0.6719 0.7399 -0.0330
vn 0.4834 0.6660 -0.5681
vn 0.7161 0.6930 -0.0833
vn 0.6889 0.2020 -0.6961
vn 0.7722 0.2557 -0.5816
vn 0.2242 0.5642 -0.7946
vn 0.2738 0.4356 -0.8575
vn 0.2720 0.4660 -0.8419
vn 0.7171 0.2234 -0.6602
vn 0.1844 0.6464 -0.7403
vn 0.8210 0.2881 -0.4929
vn 0.2601 0.5368 -0.8026
vn 0.7425 0.2652 -0.6151
vn 0.2611 0.4801 -0.8374
vn 0.7047 0.2224 -0.6737
vn 0.2531 -0.1613 0.9539
vn 0.3946 -0.1305 0.9095
vn 0.0792 -0.6848 0.7244
vn 0.0143 -0.5811 0.8137
vn 0.0368 -0.6015 0.7980
vn 0.3014 -0.1548 0.9408
vn 0.1221 -0.7490 0.6513
vn 0.4884 -0.1052 0.8663
vn 0.0855 -0.6508 0.7545
vn 0.3631 -0.1629 0.9174
vn 0.0390 -0.6159 0.7868
vn 0.2858 -0.1639 0.9442
vn 0.5496 -0.4599 -0.6974
vn 0.4202 -0.4716 -0.7753
vn 0.5308 -0.8184 -0.2199
vn 0.6334 -0.7226 -0.2768
vn 0.6081 -0.7454 -0.2732
vn 0.5072 -0.4680 -0.7236
vn 0.4524 -0.8745 -0.1752
vn 0.3238 -0.4716 -0.8202
vn 0.5466 -0.7969 -0.2572
vn 0.4492 -0.4916 -0.7460
vn 0.5993 -0.7565 -0.2616
vn 0.5207 -0.4715 -0.7117
vn -0.8736 0.4475 -0.1912
vn -0.9017 0.3287 -0.2809
vn -0.4437 0.7851 -0.4321
vn -0.5268 0.7932 -0.3057
vn -0.5160 0.7873 -0.3376
vn -0.8838 0.4107 -0.2242
vn -0.3779 0.7699 -0.5142
vn -0.9099 0.2398 -0.3386
vn -0.4827 0.7734 -0.4110
vn -0.8858 0.3716 -0.2779
vn -0.5028 0.7904 -0.3499
vn -0.8776 0.4269 -0.2182
vn -0.3690 -0.9288 0.0340
vn -0.3231 -0.9400 -0.1099
vn -0.8311 -0.5518 0.0694
vn -0.7538 -0.6348 0.1698
vn -0.7691 -0.6234 0.1414
vn -0.3577 -0.9337 -0.0149
vn -0.8747 -0.4848 -0.0007
vn -0.2846 -0.9356 -0.2089
vn -0.8048 -0.5886 0.0765
vn -0.3576 -0.9303 -0.0814
vn -0.7803 -0.6108 0.1342
vn -0.3679 -0.9299 -0.0002
vn -0.0063 -0.9999 -0.0160
vn 0.0237 -0.9862 -0.1638
vn -0.5652 -0.8196 0.0937
vn -0.4524 -0.8737 0.1791
vn -0.4739 -0.8672 0.1532
vn 0.0003 -0.9978 -0.0659
vn -0.6376 -0.7696 0.0340
vn 0.0464 -0.9631 -0.2650
vn -0.5268 -0.8446 0.0951
vn -0.0084 -0.9913 -0.1315
vn -0.4897 -0.8592 0.1483
vn -0.0088 -0.9987 -0.0501
s 1
f 1/1/1 2/2/1 3/3/1
f 4/4/2 5/5/2 6/6/2
f 7/7/3 5/5/3 4/4/3
f 8/8/4 2/2/4 1/1/4
f 9/9/5 8/8/5 1/1/5
f 5/5/6 1/1/6 10/10/6
f 11/11/7 7/7/7 4/4/7
f 11/11/8 4/4/8 6/6/8
f 5/5/9 7/7/9 9/9/9
f 6/6/10 5/5/10 10/10/10
f 1/1/11 5/5/11 9/9/11
f 10/10/12 1/1/12 3/3/12
f 12/12/13 13/13/13 14/14/13
f 15/15/14 16/16/14 17/17/14
f 18/18/15 16/16/15 15/15/15
f 19/19/16 13/13/16 12/12/16
f 20/20/17 19/19/17 12/12/17
f 16/16/18 12/12/18 21/21/18
f 22/22/19 18/18/19 15/15/19
f 22/22/20 15/15/20 17/17/20
f 16/16/21 18/18/21 20/20/21
f 17/17/22 16/16/22 21/21/22
f 12/12/23 16/16/23 20/20/23
f 21/21/24 12/12/24 14/14/24
f 23/23/25 24/24/25 25/25/25
f 26/26/26 27/27/26 28/28/26
f 29/29/27 27/27/27 26/26/27
f 30/30/28 24/24/28 23/23/28
f 31/31/29 30/30/29 23/23/29
f 27/27/30 23/23/30 32/32/30
f 33/33/31 29/29/31 26/26/31
f 33/33/32 26/26/32 28/28/32
f 27/27/33 29/29/33 31/31/33
f 28/28/34 27/27/34 32/32/34
f 23/23/35 27/27/35 31/31/35
f 32/32/36 23/23/36 25/25/36
f 34/34/37 35/35/37 36/36/37
f 37/37/38 38/38/38 39/39/38
f 40/40/39 38/38/39 37/37/39
f 41/41/40 35/35/40 34/34/40
f 42/42/41 41/41/41 34/34/41
f 38/38/42 34/34/42 43/43/42
f 44/44/43 40/40/43 37/37/43
f 44/44/44 37/37/44 39/39/44
f 38/38/45 40/40/45 42/42/45
f 39/39/46 38/38/46 43/43/46
f 34/34/47 38/38/47 42/42/47
f 43/43/48 34/34/48 36/36/48
f 45/45/49 46/46/49 47/47/49
f 48/48/50 49/49/50 50/50/50
f 51/51/51 49/49/51 48/48/51
f 52/52/52 46/46/52 45/45/52
f 53/53/53 52/52/53 45/45/53
f 49/49/54 45/45/54 54/54/54
f 55/55/55 51/51/55 48/48/55
f 55/55/56 48/48/56 50/50/56
f 49/49/57 51/51/57 53/53/57
f 50/50/58 49/49/58 54/54/58
f 45/45/59 49/49/59 53/53/59
f 54/54/60 45/45/60 47/47/60
f 56/56/61 57/57/61 58/58/61
f 59/59/62 60/60/62 61/61/62
f 62/62/63 60/60/63 59/59/63
f 63/63/64 57/57/64 56/56/64
f 64/64/65 63/63/65 56/56/65
f 60/60/66 56/56/66 65/65/66
f 66/66/67 62/62/67 59/59/67
f 66/66/68 59/59/68 61/61/68
f 60/60/69 62/62/69 64/64/69
f 61/61/70 60/60/70 65/65/70
f 56/56/71 60/60/71 64/64/71
f 65/65/72 56/56/72 58/58/72
f 67/67/73 68/68/73 69/69/73
f 70/70/74 71/71/74 72/72/74
f 73/73/75 71/71/75 70/70/75
f 74/74/76 68/68/76 67/67/76
f 75/75/77 74/74/77 67/67/77
f 71/71/78 67/67/78 76/76/78
f 77/77/79 73/73/79 70/70/79
f 77/77/80 70/70/80 72/72/80
f 71/71/81 73/73/81 75/75/81
f 72/72/82 71/71/82 76/76/82
f 67/67/83 71/71/83 75/75/83
f 76/76/84 67/67/84 69/69/84
f 78/78/85 79/79/85 80/80/85
f 81/81/86 82/82/86 83/83/86
f 84/84/87 82/82/87 81/81/87
f 85/85/88 79/79/88 78/78/88
f 86/86/89 85/85/89 78/78/89
f 82/82/90 78/78/90 87/87/90
f 88/88/91 84/84/91 81/81/91
f 88/88/92 81/81/92 83/83/92
f 82/82/93 84/84/93 86/86/93
f 83/83/94 82/82/94 87/87/94
f 78/78/95 82/82/95 86/86/95
f 87/87/96 78/78/96 80/80/96
f 89/89/97 90/90/97 91/91/97
f 92/92/98 93/93/98 94/94/98
f 95/95/99 93/93/99 92/92/99
f 96/96/100 90/90/100 89/89/100
f 97/97/101 96/96/101 89/89/101
f 93/93/102 89/89/102 98/98/102
f 99/99/103 95/95/103 92/92/103
f 99/99/104 92/92/104 94/94/104
f 93/93/105 95/95/105 97/97/105
f 94/94/106 93/93/106 98/98/106
f 89/89/107 93/93/107 97/97/107
f 98/98/108 89/89/108 91/91/108
f 100/100/109 101/101/109 102/102/109
f 103/103/110 104/104/110 105/105/110
f 106/106/111 104/104/111 103/103/111
f 107/107/112 101/101/112 100/100/112
f 108/108/113 107/107/113 100/100/113
f 104/104/114 100/100/114 109/109/114
f 110/110/115 106/106/115 103/103/115
f 110/110/116 103/103/116 105/105/116
f 104/104/117 106/106/117 108/108/117
f 105/105/118 104/104/118 109/109/118
f 100/100/119 104/104/119 108/108/119
f 109/109/120 100/100/120 102/102/120
f 111/111/121 112/112/121 113/113/121
f 114/114/122 115/115/122 116/116/122
f 117/117/123 115/115/123 114/114/123
f 118/118/124 112/112/124 111/111/124
f 119/119/125 118/118/125 111/111/125
f 115/115/126 111/111/126 120/120/126
f 121/121/127 117/117/127 114/114/127
f 121/121/128 114/114/128 116/116/128
f 115/115/129 117/117/129 119/119/129
f 116/116/130 115/115/130 120/120/130
f 111/111/131 115/115/131 119/119/131
f 120/120/132 111/111/132 113/113/132
f 122/122/133 123/123/133 124/124/133
f 125/125/134 126/126/134 127/127/134
f 128/128/135 126/126/135 125/125/135
f 129/129/136 123/123/136 122/122/136
f 130/130/137 129/129/137 122/122/137
f 126/126/138 122/122/138 131/131/138
f 132/132/139 128/128/139 125/125/139
f 132/132/140 125/125/140 127/127/140
f 126/126/141 128/128/141 130/130/141
f 127/127/142 126/126/142 131/131/142
f 122/122/143 126/126/143 130/130/143
f 131/131/144 122/122/144 124/124/144
