# Blender 3.3.0
# www.blender.org
o leaf2
v -0.194256 0.300910 -0.082368
v -0.253348 0.286355 -0.365900
v 0.330871 0.494105 0.762562
v -0.379182 0.227733 -0.995282
v -0.559403 0.278310 -0.804537
v -0.654780 0.313058 -0.549610
v -0.667287 0.342271 -0.301514
v -0.548370 0.382911 -0.041802
v -0.714351 0.348143 -0.034908
v -0.881995 0.366827 0.018367
v -0.786461 0.620995 0.282855
v -0.662494 0.614532 0.470251
v -0.463725 0.577348 0.618553
v -0.260982 0.525457 0.666074
v -0.155656 0.333353 0.608651
v -0.076895 0.345682 0.681506
v -0.052959 0.429781 0.687011
v 0.098922 0.493983 0.760008
v 0.564560 0.419490 0.735614
v 0.647423 0.280812 0.746642
v 0.551756 0.247852 0.555342
v 0.305515 0.229085 0.507754
v 0.541131 0.269276 0.450874
v 0.743177 0.256902 0.398825
v 0.870152 0.261746 0.133898
v 0.919876 0.247415 -0.163089
v 0.862419 0.237549 -0.488914
v 0.575204 0.303619 -0.471719
v 0.275689 0.371742 -0.395427
v 0.120720 0.398610 -0.282180
v 0.097313 0.381104 -0.511866
v -0.064030 0.330892 -0.746387
v -0.218884 0.281394 -0.878968
v -0.122906 0.218726 0.297974
v -0.030225 0.257551 0.469145
v -0.008678 0.244862 0.519146
v 0.066545 0.241149 0.551388
v 0.157965 0.165231 0.282319
v 0.359025 0.195452 0.076764
v 0.259985 0.330970 0.684282
v -0.265661 0.340648 0.516632
v -0.451452 0.367316 0.355159
v -0.007587 0.356584 0.134746
vn -0.2823 0.9589 -0.0282
vn -0.2982 0.9541 -0.0293
vn 0.1475 0.9816 -0.1209
vn 0.3108 0.9019 -0.3000
vn -0.5950 0.8038 -0.0006
vn 0.0988 0.9925 -0.0715
vn 0.1089 0.9896 -0.0941
vn -0.0699 0.9593 0.2736
vn 0.0292 0.8690 -0.4940
vn 0.1611 0.0178 -0.9868
vn 0.6229 0.7366 0.2634
vn 0.5727 0.5066 -0.6445
vn -0.2320 0.9727 -0.0016
vn -0.2814 0.9595 -0.0119
vn 0.1366 0.9846 -0.1090
vn 0.5805 0.7209 -0.3786
vn -0.0136 0.9768 0.2136
vn 0.0331 0.9782 0.2051
vn 0.3900 0.8598 0.3297
vn 0.6090 0.7483 0.2629
vn 0.0709 0.9909 0.1142
vn -0.2000 0.9692 -0.1436
vn 0.1183 0.9324 -0.3415
vn -0.0556 0.9011 -0.4299
vn -0.1446 0.9882 -0.0512
vn -0.1208 0.9903 -0.0680
vn 0.2821 0.9140 0.2915
vn -0.1306 0.9913 0.0180
vn 0.1825 0.9312 0.3155
vn 0.2311 0.9332 0.2751
vn -0.0977 0.9951 -0.0129
vn 0.1633 0.9553 -0.2463
vn 0.0302 0.4217 -0.9062
vn 0.0259 0.4233 -0.9056
vn 0.0420 0.8700 -0.4913
vn -0.0876 0.7272 -0.6808
vn 0.4566 -0.0719 -0.8868
vn 0.0095 0.4590 -0.8884
vn 0.3243 0.5898 -0.7396
vn 0.5220 0.6662 -0.5326
vn 0.1375 0.9905 0.0053
vn 0.6092 0.6965 -0.3790
vn 0.0783 0.9918 -0.1015
vn 0.5312 0.6854 -0.4980
vn 0.5306 0.5072 -0.6791
vn -0.2008 0.9757 0.0873
vn -0.8601 0.4611 -0.2182
vn 0.4722 0.8642 -0.1736
vt 0.708715 0.787661
vt 0.696035 0.851853
vt 0.818289 0.535155
vt 0.669050 0.988475
vt 0.632412 0.939504
vt 0.612756 0.895301
vt 0.605458 0.831946
vt 0.629618 0.765361
vt 0.591690 0.765361
vt 0.566107 0.757272
vt 0.571377 0.691127
vt 0.598743 0.648152
vt 0.644308 0.614657
vt 0.691911 0.604116
vt 0.719352 0.626907
vt 0.743885 0.611800
vt 0.740491 0.584924
vt 0.769598 0.548902
vt 0.867850 0.546497
vt 0.898288 0.575344
vt 0.871416 0.613210
vt 0.811627 0.639548
vt 0.865141 0.655345
vt 0.915514 0.680727
vt 0.947919 0.731167
vt 0.957900 0.797150
vt 0.950395 0.864152
vt 0.881365 0.865658
vt 0.820607 0.848682
vt 0.777939 0.818832
vt 0.775563 0.876099
vt 0.740615 0.929789
vt 0.705746 0.960792
vt 0.725335 0.703523
vt 0.747210 0.653351
vt 0.752316 0.641909
vt 0.778426 0.637901
vt 0.788500 0.697242
vt 0.832902 0.744442
vt 0.813027 0.590881
vt 0.697570 0.643396
vt 0.655454 0.679132
vt 0.750675 0.729560
s 0
f 2/2/1 32/32/1 33/33/1
f 33/33/2 4/4/2 2/2/2
f 4/4/3 5/5/3 2/2/3
f 34/34/4 41/41/4 15/15/4
f 30/30/5 31/31/5 34/34/5
f 2/2/6 6/6/6 1/1/6
f 6/6/7 2/2/7 5/5/7
f 36/36/8 37/37/8 35/35/8
f 22/22/9 40/40/9 21/21/9
f 20/20/10 40/40/10 19/19/10
f 35/35/11 38/38/11 30/30/11
f 15/15/12 41/41/12 14/14/12
f 1/1/13 32/32/13 2/2/13
f 32/32/14 1/1/14 31/31/14
f 1/1/15 6/6/15 7/7/15
f 7/7/16 8/8/16 34/34/16
f 34/34/17 1/1/17 7/7/17
f 34/34/18 31/31/18 1/1/18
f 30/30/19 38/38/19 29/29/19
f 30/30/20 43/43/20 35/35/20
f 35/35/21 37/37/21 22/22/21
f 22/22/22 23/23/22 38/38/22
f 38/38/23 35/35/23 22/22/23
f 38/38/24 23/23/24 24/24/24
f 24/24/25 25/25/25 38/38/25
f 39/39/26 25/25/26 26/26/26
f 29/29/27 39/39/27 28/28/27
f 38/38/28 25/25/28 39/39/28
f 29/29/29 38/38/29 39/39/29
f 28/28/30 39/39/30 27/27/30
f 26/26/31 27/27/31 39/39/31
f 21/21/32 40/40/32 20/20/32
f 19/19/33 40/40/33 3/3/33
f 3/3/34 40/40/34 16/16/34
f 40/40/35 22/22/35 16/16/35
f 16/16/36 22/22/36 37/37/36
f 16/16/37 17/17/37 18/18/37
f 18/18/38 3/3/38 16/16/38
f 14/14/39 41/41/39 13/13/39
f 13/13/40 41/41/40 12/12/40
f 41/41/41 8/8/41 42/42/41
f 12/12/42 42/42/42 11/11/42
f 42/42/43 9/9/43 10/10/43
f 12/12/44 41/41/44 42/42/44
f 11/11/45 42/42/45 10/10/45
f 42/42/46 8/8/46 9/9/46
f 34/34/47 43/43/47 30/30/47
f 41/41/48 34/34/48 8/8/48
